<?xml version="1.0" encoding="UTF-8"?>
<svg version="1.1" xmlns="http://www.w3.org/2000/svg" width="1021" height="399">
<path d="M0 0 C0.88602402 0.00222061 1.77204803 0.00444122 2.68492126 0.00672913 C3.68588333 0.00680466 4.6868454 0.00688019 5.71813965 0.00695801 C6.80666733 0.01211929 7.89519501 0.01728058 9.01670837 0.02259827 C10.67928932 0.02472069 10.67928932 0.02472069 12.37545776 0.02688599 C15.93168281 0.03250418 19.48784596 0.04505977 23.04405212 0.05775452 C25.44834809 0.06276717 27.85264504 0.06733048 30.25694275 0.07142639 C36.16516716 0.08247952 42.07335522 0.09923535 47.98155212 0.12025452 C51.97734404 14.19905277 55.63985468 28.35259935 59.23545837 42.53822327 C59.82387827 44.85315908 60.41250023 47.16804354 61.00131226 49.48287964 C62.53852458 55.52797971 64.07353379 61.57363675 65.6078949 67.61946106 C68.06561586 77.30244582 70.52630171 86.98467692 72.98782158 96.66669655 C73.83942587 100.01795552 74.68981152 103.36952189 75.54003906 106.72113037 C76.06941562 108.8049462 76.59882768 110.88875302 77.12828064 112.97254944 C77.35851425 113.88151978 77.58874786 114.79049011 77.82595825 115.727005 C79.81383512 123.54349809 81.90291342 131.32535939 83.98155212 139.12025452 C84.31155212 93.25025452 84.64155212 47.38025452 84.98155212 0.12025452 C96.86155212 0.12025452 108.74155212 0.12025452 120.98155212 0.12025452 C120.98155212 82.62025452 120.98155212 165.12025452 120.98155212 250.12025452 C107.45155212 250.12025452 93.92155212 250.12025452 79.98155212 250.12025452 C77.96352837 244.73885785 76.21266807 239.6379169 74.8311615 234.10877991 C74.63691086 233.34704971 74.44266022 232.58531952 74.24252319 231.80050659 C73.59928416 229.27401269 72.96239008 226.74596208 72.32530212 224.21791077 C71.85989549 222.38628789 71.39402242 220.55478348 70.92771912 218.72338867 C69.68834036 213.85170282 68.45399915 208.97875601 67.22111511 204.10542297 C56.66607613 162.39311452 45.81961515 120.76123351 34.98155212 79.12025452 C34.65155212 135.55025452 34.32155212 191.98025452 33.98155212 250.12025452 C21.77155212 250.12025452 9.56155212 250.12025452 -3.01844788 250.12025452 C-3.04103254 218.41614889 -3.05894574 186.71204631 -3.06951321 155.00793454 C-3.07076398 151.26892595 -3.0720583 147.52991738 -3.07337952 143.79090881 C-3.07364183 143.04650805 -3.07390414 142.30210728 -3.0741744 141.53514891 C-3.07853122 129.46605033 -3.08641884 117.39695649 -3.09560067 105.32786072 C-3.10493686 92.95309039 -3.11050341 80.57832255 -3.11253637 68.20354885 C-3.11391167 60.56149546 -3.11826264 52.91945547 -3.12636434 45.27740621 C-3.13225206 39.42737671 -3.13290693 33.57735418 -3.13155556 27.72732162 C-3.13183208 25.32019277 -3.13383977 22.91306343 -3.13765335 20.50593758 C-3.14258379 17.23510988 -3.14144858 13.96434084 -3.13870239 10.69351196 C-3.14161523 9.72757868 -3.14452808 8.76164539 -3.14752918 7.7664414 C-3.14553814 6.89708486 -3.14354709 6.02772831 -3.1414957 5.13202763 C-3.14187542 4.37600445 -3.14225515 3.61998127 -3.14264637 2.8410483 C-2.95919293 0.29926604 -2.5315729 0.15082533 0 0 Z " fill="#DA1F2C" transform="translate(562.0184478759766,103.87974548339844)"/>
<path d="M0 0 C16.5 0 33 0 50 0 C53.60935413 12.63273945 57.16509647 25.21191129 60.35546875 37.9453125 C60.74621993 39.49388222 61.13728673 41.04237232 61.52864075 42.59078979 C62.54809381 46.6273819 63.56380958 50.66490397 64.57849121 54.70269775 C71.64770964 82.82016334 78.81465047 110.91181549 86 139 C86.33 93.13 86.66 47.26 87 0 C98.88 0 110.76 0 123 0 C124 1 124 1 124.1241985 2.72079378 C124.12381878 3.47681696 124.12343906 4.23284014 124.12304783 5.01177311 C124.12503888 5.88112966 124.12702993 6.7504862 124.12908131 7.64618689 C124.12616847 8.61212017 124.12325563 9.57805346 124.12025452 10.57325745 C124.12110894 11.59091641 124.12196337 12.60857537 124.12284368 13.65707248 C124.12450155 17.0950482 124.11897212 20.53297599 124.11352539 23.97094727 C124.11324356 26.42426553 124.11340117 28.87758388 124.1139679 31.3309021 C124.11419622 36.62711271 124.11134482 41.92330818 124.10573006 47.21951485 C124.09761723 54.87702293 124.09500006 62.53452506 124.09374207 70.19203698 C124.0915512 82.61460029 124.08489019 95.03715705 124.07543945 107.4597168 C124.06626622 119.53002896 124.05918495 131.60033935 124.05493164 143.6706543 C124.05466892 144.41415347 124.05440619 145.15765265 124.05413551 145.9236821 C124.05283051 149.6534452 124.05156679 153.38320831 124.05032361 157.11297143 C124.03994993 188.0753192 124.02205626 219.03765825 124 250 C110.14 250 96.28 250 82 250 C79.96537291 243.89611874 78.10732757 237.90578364 76.52661133 231.69067383 C76.2982811 230.80383911 76.06995087 229.91700439 75.83470154 229.0032959 C75.08078077 226.07197675 74.33141631 223.13951291 73.58203125 220.20703125 C73.04201406 218.10390362 72.50169856 216.00085257 71.96110535 213.89787292 C70.52925566 208.32468454 69.10119245 202.75053291 67.67401123 197.17614746 C66.28534113 191.75428356 64.89355144 186.33322249 63.50195312 180.91210938 C62.39400391 176.59568359 61.28605469 172.27925781 60.14453125 167.83203125 C52.45610711 137.88122645 44.72669776 107.94095382 37 78 C36.67 134.76 36.34 191.52 36 250 C24.12 250 12.24 250 0 250 C0 167.5 0 85 0 0 Z " fill="#DB202C" transform="translate(46,104)"/>
<path d="M0 0 C1.77206192 0.00015919 3.54412846 0.00585754 5.31616211 0.01586914 C6.24698105 0.01728409 7.17779999 0.01869904 8.13682556 0.02015686 C11.12241777 0.02577367 14.10793615 0.03832899 17.09350586 0.05102539 C19.11238499 0.05603823 21.13126529 0.06060151 23.15014648 0.06469727 C28.11046158 0.07574856 33.07072118 0.09302444 38.03100586 0.11352539 C45.3367702 21.24653359 52.50617597 42.41347719 59.3347168 63.70605469 C59.57689941 64.45978867 59.81908203 65.21352264 60.06860352 65.99009705 C60.52071729 67.39832889 60.97132863 68.80704432 61.42016602 70.21632385 C62.54787489 73.73505157 62.54787489 73.73505157 64.03100586 77.11352539 C77.13920536 38.64996349 77.13920536 38.64996349 90.03100586 0.11352539 C102.57100586 0.11352539 115.11100586 0.11352539 128.03100586 0.11352539 C129.16711156 3.52184249 128.92274429 4.12396424 127.73364258 7.3671875 C127.42019394 8.23658463 127.1067453 9.10598175 126.78379822 10.00172424 C126.25261131 11.43185097 126.25261131 11.43185097 125.71069336 12.89086914 C125.34420181 13.90104599 124.97771027 14.91122284 124.60011292 15.95201111 C123.79855987 18.15901675 122.99293665 20.3645473 122.18380737 22.56878662 C119.99783097 28.52596519 117.84270938 34.49431518 115.68334961 40.46118164 C115.22331412 41.72994779 114.76325631 42.99870584 114.30317688 44.26745605 C109.15627522 58.47422882 104.15359734 72.73125733 99.16617584 86.99464798 C98.46995359 88.98438792 97.77251135 90.97369591 97.074646 92.96286011 C95.76457386 96.69708486 94.45800328 100.43252814 93.15209961 104.16821289 C92.76333145 105.27639877 92.37456329 106.38458466 91.97401428 107.52635193 C91.2745811 109.53257158 90.58378413 111.54183492 89.90394592 113.55477905 C89.18368048 115.66600826 88.40999584 117.75893287 87.62231445 119.84594727 C86.83863966 124.17654321 87.93652772 127.33648274 89.44897461 131.34008789 C89.73302155 132.14037918 90.01706848 132.94067047 90.3097229 133.76521301 C91.2607136 136.43007967 92.23953621 139.0838228 93.21850586 141.73852539 C93.89897628 143.62857002 94.57756343 145.5192936 95.25439453 147.41064453 C96.71575977 151.48402691 98.18887489 155.55289662 99.6706543 159.61889648 C102.11163648 166.32249884 104.51540096 173.0391276 106.91381836 179.75805664 C112.4741734 195.32405376 118.04917068 210.88486982 123.67640686 226.42683411 C124.4225658 228.48863911 125.16696841 230.55106789 125.91064453 232.61376953 C126.75043808 234.94126904 127.59402626 237.26740485 128.44238281 239.59179688 C128.79518311 240.57092041 129.1479834 241.55004395 129.51147461 242.55883789 C129.80948975 243.37884277 130.10750488 244.19884766 130.41455078 245.04370117 C131.03100586 247.11352539 131.03100586 247.11352539 131.03100586 250.11352539 C116.84100586 250.11352539 102.65100586 250.11352539 88.03100586 250.11352539 C80.29778366 227.68718103 72.72233255 205.23105176 65.4387207 182.65527344 C65.15062531 181.76380112 64.86252991 180.8723288 64.56570435 179.95384216 C64.02450675 178.27820312 63.48477659 176.60208918 62.94674683 174.9254303 C61.68662133 170.94154056 61.68662133 170.94154056 60.03100586 167.11352539 C59.57119576 168.49628662 59.57119576 168.49628662 59.10209656 169.90698242 C56.20553732 178.61697867 53.30737258 187.32643927 50.40765667 196.03538513 C48.91712896 200.512175 47.42715701 204.98914821 45.93847656 209.46655273 C44.50037541 213.79176381 43.06078645 218.1164771 41.62018776 222.44085693 C41.07228987 224.08639071 40.52491791 225.73209971 39.9780941 227.37799072 C39.20897835 229.69265298 38.4379528 232.00667112 37.66650391 234.32055664 C37.44352127 234.99309982 37.22053864 235.66564301 36.99079895 236.35856628 C35.44238433 240.9938858 33.74986458 245.52990215 32.03100586 250.11352539 C19.16100586 250.11352539 6.29100586 250.11352539 -6.96899414 250.11352539 C-5.00435433 243.56472601 -2.99123266 237.10193987 -0.73852539 230.65649414 C-0.43106384 229.77171387 -0.12360229 228.88693359 0.19317627 227.9753418 C1.19922221 225.08306172 2.20866829 222.19198362 3.21850586 219.30102539 C3.92887519 217.26302136 4.63924301 215.22501679 5.34960938 213.18701172 C10.00913167 199.83380536 14.71162836 186.49599945 19.44866943 173.17010498 C20.12693621 171.2619545 20.80471368 169.35363001 21.48199463 167.44512939 C24.62393091 158.59270715 27.77377248 149.7457545 31.07006836 140.94946289 C31.50520752 139.77875244 31.94034668 138.60804199 32.38867188 137.40185547 C33.15790979 135.34229305 33.93852605 133.28692069 34.73388672 131.23730469 C35.0601001 130.36243408 35.38631348 129.48756348 35.72241211 128.58618164 C36.1430896 127.49188843 36.1430896 127.49188843 36.57226562 126.37548828 C37.72201284 120.70629831 35.15803714 115.23498637 33.24194336 109.96899414 C32.95047424 109.15466415 32.65900513 108.34033417 32.35870361 107.50132751 C31.7179102 105.71268378 31.07482335 103.92486045 30.42974854 102.13775635 C29.01834976 98.22685305 27.61864761 94.31179304 26.21798706 90.39703369 C25.44473726 88.23630564 24.67089391 86.07578992 23.89651489 83.91546631 C19.232917 70.90216755 14.61074509 57.87420211 9.99594307 44.84353161 C8.44365303 40.46042988 6.88913512 36.07812781 5.33273315 31.69648457 C4.35085871 28.93091811 3.37081496 26.16470547 2.39125824 23.39831734 C1.71407112 21.48745909 1.03482996 19.57732916 0.35552979 17.66722107 C-1.58326611 12.18513899 -3.47594504 6.73483982 -4.96899414 1.11352539 C-3.96899414 0.11352539 -3.96899414 0.11352539 0 0 Z " fill="#DA1F2C" transform="translate(844.968994140625,103.886474609375)"/>
<path d="M0 0 C35.31 0 70.62 0 107 0 C108 1 108 1 108.11352539 4.51000977 C108.11327431 6.07048421 108.1077134 7.6309642 108.09765625 9.19140625 C108.09664917 9.91775269 108.09564209 10.64409912 108.09460449 11.39245605 C108.08935716 14.11582001 108.075396 16.83916153 108.0625 19.5625 C108.041875 25.646875 108.02125 31.73125 108 38 C85.89 38 63.78 38 41 38 C41 58.79 41 79.58 41 101 C58.49 101 75.98 101 94 101 C94 113.54 94 126.08 94 139 C76.51 139 59.02 139 41 139 C41 163.42 41 187.84 41 213 C63.11 213 85.22 213 108 213 C108 225.21 108 237.42 108 250 C72.36 250 36.72 250 0 250 C0 167.5 0 85 0 0 Z " fill="#DA202C" transform="translate(232,104)"/>
<path d="M0 0 C40.26 0 80.52 0 122 0 C122 12.54 122 25.08 122 38 C108.8 38 95.6 38 82 38 C82 107.96 82 177.92 82 250 C68.47 250 54.94 250 41 250 C41 180.04 41 110.08 41 38 C27.8 38 14.6 38 1 38 C0.67 37.67 0.34 37.34 0 37 C0 24.79 0 12.58 0 0 Z " fill="#DB202C" transform="translate(385,104)"/>
<path d="M0 0 C13.86 0 27.72 0 42 0 C42 82.5 42 165 42 250 C28.47 250 14.94 250 1 250 C0.67 167.5 0.34 85 0 0 Z " fill="#DA1F2B" transform="translate(745,104)"/>
<path d="M0 0 C5.24881176 0.48657624 9.0073114 3.26547398 13.3125 6.0625 C14.42334961 6.77116211 14.42334961 6.77116211 15.55664062 7.49414062 C17.37551219 8.65587149 19.1883659 9.82701482 21 11 C17.41156533 22.83831633 10.53842661 33.67730801 -0.16796875 40.0546875 C-7.05511072 43.60839402 -17.02901007 43.1089323 -24.37109375 41.05859375 C-28.28990606 39.4329746 -31.99228757 37.54952951 -35.71484375 35.51953125 C-40.95810628 32.70472716 -43.97028914 31.27722547 -50 33 C-53.03325133 33.64235617 -53.03325133 33.64235617 -53.9375 35.625 C-54.288125 36.40875 -54.63875 37.1925 -55 38 C-56.30586659 40.34955148 -57.6566511 42.67152857 -59 45 C-63.6393176 43.36047417 -67.63855858 40.93128948 -71.8125 38.375 C-72.50537109 37.95476562 -73.19824219 37.53453125 -73.91210938 37.1015625 C-75.61010748 36.0710533 -77.30533614 35.03598319 -79 34 C-78.48339366 28.67813465 -76.67207695 25.03012428 -73.9375 20.5625 C-73.53265381 19.90016357 -73.12780762 19.23782715 -72.71069336 18.55541992 C-67.3166032 10.02118741 -60.94925506 4.54023533 -51 2 C-40.91087951 0.6170676 -32.64898817 4.06661047 -23.875 8.6875 C-16.76817029 12.42553896 -16.76817029 12.42553896 -9 12 C-5.08048577 8.76214042 -2.41657132 4.43038075 0 0 Z " fill="#DA1F2B" transform="translate(651,46)"/>
<path d="M0 0 C5.24881176 0.48657624 9.0073114 3.26547398 13.3125 6.0625 C14.42334961 6.77116211 14.42334961 6.77116211 15.55664062 7.49414062 C17.37551219 8.65587149 19.1883659 9.82701482 21 11 C17.39674977 22.50009301 11.09025123 33.71901059 0.5 40.0625 C-7.53480315 43.63352362 -18.07532885 43.49983397 -26.25 40.375 C-28.90244822 39.13599805 -31.45171111 37.75578457 -34.02734375 36.36328125 C-40.14686861 33.05843962 -40.14686861 33.05843962 -46.875 31.6875 C-52.79260481 34.17289402 -55.9976531 39.49569734 -59 45 C-63.6393176 43.36047417 -67.63855858 40.93128948 -71.8125 38.375 C-72.50537109 37.95476562 -73.19824219 37.53453125 -73.91210938 37.1015625 C-75.61010748 36.0710533 -77.30533614 35.03598319 -79 34 C-77.25994717 23.65126475 -70.82516223 13.31850373 -62.40234375 7.07421875 C-54.898657 2.44381412 -48.81160914 1.18325816 -40 2 C-33.84096988 3.53537076 -28.39526279 6.2902941 -22.8125 9.25 C-17.77354648 11.81516675 -14.60538985 13.0817419 -9 12 C-4.69478898 8.77109174 -2.47422206 4.67353056 0 0 Z " fill="#DA1F2B" transform="translate(137,46)"/>
</svg>
